SplineFontDB: 3.2
FontName: QuasarOpen-Thin
FullName: Quasar Open Thin
FamilyName: Quasar Open
Weight: Thin
Copyright: Copyright (c) 2023, neilb
UComments: "2023-12-15: Created with FontForge (http://fontforge.org)"
Version: 000.001
ItalicAngle: 0
UnderlinePosition: -100
UnderlineWidth: 50
Ascent: 800
Descent: 200
InvalidEm: 0
LayerCount: 2
Layer: 0 0 "Back" 1
Layer: 1 0 "Fore" 0
XUID: [1021 441 2049316168 16478]
StyleMap: 0x0000
FSType: 0
OS2Version: 0
OS2_WeightWidthSlopeOnly: 0
OS2_UseTypoMetrics: 1
CreationTime: 1702635369
ModificationTime: 1704287235
OS2TypoAscent: 0
OS2TypoAOffset: 1
OS2TypoDescent: 0
OS2TypoDOffset: 1
OS2TypoLinegap: 90
OS2WinAscent: 0
OS2WinAOffset: 1
OS2WinDescent: 0
OS2WinDOffset: 1
HheadAscent: 0
HheadAOffset: 1
HheadDescent: 0
HheadDOffset: 1
OS2Vendor: 'PfEd'
MarkAttachClasses: 1
DEI: 91125
Encoding: UnicodeFull
UnicodeInterp: none
NameList: AGL For New Fonts
DisplaySize: -48
AntiAlias: 1
FitToEm: 1
WinInfo: 16 16 8
BeginPrivate: 0
EndPrivate
BeginChars: 1114112 27

StartChar: i
Encoding: 105 105 0
Width: 185
Flags: HMW
LayerCount: 2
Fore
SplineSet
68 669 m 4
 68 683 79 694 93 694 c 4
 107 694 118 683 118 669 c 4
 118 655 107 644 93 644 c 4
 79 644 68 655 68 669 c 4
80 500 m 1
 105 500 l 1
 105 0 l 1
 80 0 l 1
 80 500 l 1
EndSplineSet
EndChar

StartChar: o
Encoding: 111 111 1
Width: 590
Flags: HMW
LayerCount: 2
Fore
SplineSet
65 250 m 4
 65 121 161 15 295 15 c 4
 429 15 525 121 525 250 c 4
 525 379 429 485 295 485 c 4
 161 485 65 379 65 250 c 4
40 250 m 4
 40 395 146 510 295 510 c 4
 444 510 550 395 550 250 c 4
 550 105 444 -10 295 -10 c 4
 146 -10 40 105 40 250 c 4
EndSplineSet
EndChar

StartChar: n
Encoding: 110 110 2
Width: 630
Flags: HMW
LayerCount: 2
Back
SplineSet
80 275 m 4
 80 405 185 510 315 510 c 4
 445 510 550 405 550 275 c 4
 550 145 445 40 315 40 c 4
 185 40 80 145 80 275 c 4
105 275 m 0
 105 391 199 485 315 485 c 0
 431 485 525 391 525 275 c 0
 525 159 431 65 315 65 c 0
 199 65 105 159 105 275 c 0
EndSplineSet
Fore
SplineSet
80 268 m 2
 80 415 191 510 315 510 c 0
 439 510 550 414 550 268 c 2
 550 0 l 9
 525 0 l 17
 525 267 l 2
 525 404 421 485 315 485 c 0
 209 485 105 404 105 267 c 2
 105 0 l 9
 80 0 l 17
 80 268 l 2
EndSplineSet
EndChar

StartChar: m
Encoding: 109 109 3
Width: 955
Flags: HW
LayerCount: 2
Back
SplineSet
465 268 m 2
 465 415 576 510 700 510 c 0
 824 510 935 414 935 268 c 2
 935 0 l 9
 910 0 l 17
 910 267 l 2
 910 404 806 485 700 485 c 0
 594 485 490 404 490 267 c 2
 490 0 l 9
 465 0 l 17
 465 268 l 2
20 268 m 2
 20 415 131 510 255 510 c 0
 379 510 490 414 490 268 c 2
 490 0 l 9
 465 0 l 17
 465 267 l 2
 465 404 361 485 255 485 c 0
 149 485 45 404 45 267 c 2
 45 0 l 9
 20 0 l 17
 20 268 l 2
EndSplineSet
Fore
SplineSet
470 268 m 2
 470 415 548 510 672 510 c 0
 794 510 875 412 875 268 c 2
 875 0 l 9
 850 0 l 17
 850 267 l 2
 850 404 776 485 670 485 c 0
 564 485 490 404 490 267 c 2
 490 0 l 9
 470 0 l 17
 470 268 l 2
80 268 m 2
 80 414 161 510 283 510 c 0
 407 510 485 414 485 268 c 2
 485 0 l 9
 465 0 l 17
 465 267 l 2
 465 404 391 485 285 485 c 0
 179 485 105 404 105 267 c 2
 105 0 l 9
 80 0 l 17
 80 268 l 2
EndSplineSet
EndChar

StartChar: l
Encoding: 108 108 4
Width: 185
Flags: HW
LayerCount: 2
Fore
SplineSet
80 828 m 1
 105 828 l 1
 105 0 l 1
 80 0 l 1
 80 828 l 1
EndSplineSet
EndChar

StartChar: h
Encoding: 104 104 5
Width: 630
Flags: HW
LayerCount: 2
Back
SplineSet
80 828 m 1
 105 828 l 1
 105 0 l 1
 80 0 l 1
 80 828 l 1
80 268 m 2
 80 415 191 510 315 510 c 0
 439 510 550 414 550 268 c 2
 550 0 l 9
 525 0 l 17
 525 267 l 2
 525 404 421 485 315 485 c 0
 209 485 105 404 105 267 c 2
 105 230 l 9
 80 230 l 17
 80 268 l 2
EndSplineSet
Fore
SplineSet
80 828 m 1
 105 828 l 1
 105 0 l 1
 80 0 l 1
 80 828 l 1
88 268 m 2
 88 415 185 510 321 510 c 0
 437 510 550 415 550 268 c 2
 550 0 l 9
 525 0 l 17
 525 267 l 2
 525 400 427 485 315 485 c 0
 209 485 105 404 105 267 c 2
 105 230 l 9
 88 230 l 17
 88 268 l 2
EndSplineSet
EndChar

StartChar: g
Encoding: 103 103 6
Width: 520
Flags: HMW
LayerCount: 2
Back
SplineSet
260 475 m 6
 153 475 69 389 69 284 c 7
 69 179 155 93 260 93 c 4
 365 93 451 179 451 284 c 4
 451 333 432 377 402 411 c 5
 435 411 l 5
 461 375 476 331 476 284 c 4
 476 165 379 68 260 68 c 4
 141 68 44 165 44 284 c 4
 44 403 141 500 260 500 c 6
 476 500 l 5
 476 475 l 5
 260 475 l 6
69 -122 m 4
 69 -227 155 -313 260 -313 c 4
 365 -313 451 -227 451 -122 c 4
 451 -17 365 69 260 69 c 4
 155 69 69 -17 69 -122 c 4
44 -122 m 4
 44 -3 141 94 260 94 c 4
 379 94 476 -3 476 -122 c 4
 476 -241 379 -338 260 -338 c 4
 141 -338 44 -241 44 -122 c 4
-1145 -135 m 0
 -1145 -243 -1058 -330 -950 -330 c 0
 -842 -330 -755 -243 -755 -135 c 0
 -755 -27 -842 60 -950 60 c 0
 -1058 60 -1145 -27 -1145 -135 c 0
-1170 -135 m 0
 -1170 -14 -1071 85 -950 85 c 0
 -829 85 -730 -14 -730 -135 c 0
 -730 -256 -829 -355 -950 -355 c 0
 -1071 -355 -1170 -256 -1170 -135 c 0
-759.671875 390 m 1
 -740.817382812 357.591796875 -730 319.998046875 -730 280 c 0
 -730 159 -829 60 -950 60 c 0
 -1071 60 -1170 159 -1170 280 c 0
 -1170 401 -1071 500 -950 500 c 2
 -730 500 l 1
 -730 475 l 1
 -950 475 l 2
 -1058 475 -1145 388 -1145 280 c 0
 -1145 172 -1058 85 -950 85 c 0
 -842 85 -755 172 -755 280 c 0
 -755 320.865234375 -767.456054688 358.723632812 -788.791992188 390 c 1
 -759.671875 390 l 1
646 -170 m 0
 646 -65 722 15 831 15 c 0
 940 15 1016 -65 1016 -170 c 0
 1016 -275 940 -355 831 -355 c 0
 722 -355 646 -275 646 -170 c 0
671 -170 m 0
 671 -259 737 -330 831 -330 c 0
 925 -330 991 -259 991 -170 c 0
 991 -81 925 -10 831 -10 c 0
 737 -10 671 -81 671 -170 c 0
1041.984375 400 m 1
 1070.109375 357.786132812 1086 306.141601562 1086 250 c 0
 1086 105 980 -10 831 -10 c 0
 682 -10 576 105 576 250 c 0
 576 395 682 500 831 500 c 2
 1086 500 l 1
 1086 475 l 1
 831 475 l 2
 697 475 601 379 601 250 c 0
 601 121 697 15 831 15 c 0
 965 15 1061 121 1061 250 c 0
 1061 306.829101562 1042.36914062 359.194335938 1010.06640625 400 c 1
 1041.984375 400 l 1
-654 -245 m 0
 -654 -100 -548 15 -399 15 c 0
 -250 15 -144 -100 -144 -245 c 0
 -144 -390 -250 -505 -399 -505 c 0
 -548 -505 -654 -390 -654 -245 c 0
-629 -245 m 0
 -629 -374 -533 -480 -399 -480 c 0
 -265 -480 -169 -374 -169 -245 c 0
 -169 -116 -265 -10 -399 -10 c 0
 -533 -10 -629 -116 -629 -245 c 0
-629 250 m 0
 -629 121 -533 15 -399 15 c 0
 -265 15 -169 121 -169 250 c 0
 -169 379 -265 485 -399 485 c 0
 -533 485 -629 379 -629 250 c 0
-285.715820312 485 m 1
 -199.111328125 443.5078125 -144 354.552734375 -144 250 c 0
 -144 105 -250 -10 -399 -10 c 0
 -548 -10 -654 105 -654 250 c 0
 -654 395 -548 510 -399 510 c 2
 -144 510 l 1
 -144 485 l 1
 -285.715820312 485 l 1
EndSplineSet
Fore
SplineSet
69 -122 m 0
 69 -227 155 -313 260 -313 c 0
 365 -313 451 -227 451 -122 c 0
 451 -17 365 69 260 69 c 0
 155 69 69 -17 69 -122 c 0
44 -122 m 0
 44 -1 141 89 260 89 c 0
 379 89 476 -1 476 -122 c 0
 476 -241 379 -338 260 -338 c 0
 141 -338 44 -241 44 -122 c 0
260 475 m 2
 153 475 69 389 69 284 c 3
 69 179 155 93 260 93 c 0
 365 93 451 179 451 284 c 0
 451 333 432 377 402 411 c 1
 435 411 l 1
 461 375 476 331 476 284 c 0
 476 163 379 73 260 73 c 0
 141 73 44 163 44 284 c 0
 44 403 141 500 260 500 c 2
 476 500 l 1
 476 475 l 1
 260 475 l 2
EndSplineSet
EndChar

StartChar: a
Encoding: 97 97 7
Width: 620
Flags: HMW
LayerCount: 2
Back
SplineSet
65 250 m 0
 65 121 161 15 295 15 c 0
 429 15 525 121 525 250 c 0
 525 379 429 485 295 485 c 0
 161 485 65 379 65 250 c 0
40 250 m 0
 40 395 146 510 295 510 c 0
 444 510 550 395 550 250 c 0
 550 105 444 -10 295 -10 c 0
 146 -10 40 105 40 250 c 0
EndSplineSet
Fore
SplineSet
295 485 m 0
 161 485 65 379 65 250 c 0
 65 121 161 15 295 15 c 0
 357.077561523 15 410.999792884 37.7492967995 451 74.9951578719 c 1
 451 41.1785031205 l 1
 408.898144661 8.95534920896 355.492753135 -10 295 -10 c 0
 146 -10 40 105 40 250 c 0
 40 395 146 510 295 510 c 0
 419 510 540 419 540 238 c 2
 540 0 l 1
 515 0 l 1
 515 237 l 2
 515 404 404 485 295 485 c 0
EndSplineSet
EndChar

StartChar: r
Encoding: 114 114 8
Width: 417
Flags: HW
LayerCount: 2
Back
SplineSet
105 250 m 0
 105 121 201 15 335 15 c 0
 469 15 565 121 565 250 c 0
 565 379 469 485 335 485 c 0
 201 485 105 379 105 250 c 0
80 250 m 0
 80 395 186 510 335 510 c 0
 484 510 590 395 590 250 c 0
 590 105 484 -10 335 -10 c 0
 186 -10 80 105 80 250 c 0
EndSplineSet
Fore
SplineSet
336 510 m 3
 352 510 377 508 397 503 c 1
 397 477 l 17
 369 484 350 485 336 485 c 3
 203 485 105 382 105 249 c 2
 105 0 l 9
 80 0 l 17
 80 250 l 2
 80 396 187 510 336 510 c 3
EndSplineSet
EndChar

StartChar: x
Encoding: 120 120 9
Width: 579
Flags: HW
LayerCount: 2
Back
SplineSet
48 500 m 1
 167 500 270 431 290 313 c 1
 310 431 414 500 533 500 c 1
 533 475 l 1
 399 475 303 379 303 250 c 0
 303 121 399 25 533 25 c 1
 533 0 l 1
 414 0 310 69 290 187 c 1
 270 69 167 0 48 0 c 1
 48 25 l 1
 182 25 278 121 278 250 c 0
 278 379 182 475 48 475 c 1
 48 500 l 1
533 475 m 1
 399 475 303 379 303 250 c 0
 303 121 399 25 533 25 c 1
 533 0 l 1
 384 0 278 105 278 250 c 0
 278 395 384 500 533 500 c 1
 533 475 l 1
48 25 m 1
 182 25 278 121 278 250 c 0
 278 379 182 475 48 475 c 1
 48 500 l 1
 197 500 303 395 303 250 c 0
 303 105 197 0 48 0 c 1
 48 25 l 1
EndSplineSet
Fore
SplineSet
78 479 m 3
 62 479 55 479 42 476 c 9
 42 501 l 1
 53 504 63 504 78 504 c 3
 181 504 298 395 298 250 c 0
 298 105 181 -4 78 -4 c 3
 63 -4 53 -3 42 0 c 1
 42 25 l 17
 55 22 62 21 78 21 c 3
 166 21 278 121 278 250 c 0
 278 379 166 479 78 479 c 3
503 21 m 3
 519 21 526 21 539 24 c 9
 539 -1 l 1
 528 -4 518 -4 503 -4 c 3
 390 -4 283 105 283 250 c 0
 283 395 390 509 503 509 c 3
 518 509 528 509 539 506 c 1
 539 481 l 17
 526 484 519 484 503 484 c 3
 405 484 303 379 303 250 c 0
 303 121 405 21 503 21 c 3
EndSplineSet
EndChar

StartChar: q
Encoding: 113 113 10
Width: 620
Flags: HW
LayerCount: 2
Fore
SplineSet
295 485 m 0
 161 485 65 379 65 250 c 0
 65 121 161 15 295 15 c 0
 357.077561523 15 410.999792884 37.7492967995 451 74.9951578719 c 1
 451 41.1785031205 l 1
 408.898144661 8.95534920896 355.492753135 -10 295 -10 c 0
 146 -10 40 105 40 250 c 0
 40 395 146 510 295 510 c 0
 419 510 540 419 540 238 c 2
 540 -328 l 1
 515 -328 l 1
 515 237 l 2
 515 404 404 485 295 485 c 0
EndSplineSet
EndChar

StartChar: e
Encoding: 101 101 15
Width: 590
Flags: HW
LayerCount: 2
Back
SplineSet
65 250 m 0
 65 121 161 15 295 15 c 0
 429 15 525 121 525 250 c 0
 525 379 429 485 295 485 c 0
 161 485 65 379 65 250 c 0
40 250 m 0
 40 395 146 510 295 510 c 0
 444 510 550 395 550 250 c 0
 550 105 444 -10 295 -10 c 0
 146 -10 40 105 40 250 c 0
EndSplineSet
Fore
SplineSet
295 25 m 2
 550 25 l 1
 550 0 l 1
 295 0 l 2
 146 0 40 105 40 250 c 3
 40 395 146 510 295 510 c 3
 444 510 550 395 550 250 c 3
 550 188.881438801 531.167147518 133.092930191 498.21942052 89 c 1
 464.774327099 89 l 1
 502.770539768 131.175286682 525 187.92473925 525 250 c 3
 525 379 429 485 295 485 c 3
 161 485 65 379 65 250 c 3
 65 121 161 25 295 25 c 2
EndSplineSet
EndChar

StartChar: y
Encoding: 121 121 16
Width: 630
Flags: HW
LayerCount: 2
Back
SplineSet
65 -78 m 0
 65 -207 161 -313 295 -313 c 0
 429 -313 525 -207 525 -78 c 0
 525 51 429 157 295 157 c 0
 161 157 65 51 65 -78 c 0
40 -78 m 0
 40 67 146 182 295 182 c 0
 444 182 550 67 550 -78 c 0
 550 -223 444 -338 295 -338 c 0
 146 -338 40 -223 40 -78 c 0
EndSplineSet
Fore
SplineSet
542 232 m 6
 542 85 445 -10 309 -10 c 0
 193 -10 80 85 80 232 c 2
 80 500 l 9
 105 500 l 17
 105 233 l 2
 105 100 203 15 315 15 c 0
 421 15 525 96 525 233 c 2
 525 270 l 9
 542 270 l 21
 542 232 l 6
153 -265 m 1
 188 -293 237 -313 295 -313 c 3
 429 -313 525 -207 525 -78 c 2
 525 500 l 1
 550 500 l 1
 550 -78 l 2
 550 -223 444 -338 295 -338 c 3
 238 -338 194 -323 153 -297 c 1
 153 -265 l 1
EndSplineSet
EndChar

StartChar: w
Encoding: 119 119 17
Width: 935
Flags: HW
LayerCount: 2
Back
SplineSet
475 242 m 2
 475 95 379 0 255 0 c 2
 70 0 l 9
 70 500 l 9
 95 500 l 17
 95 25 l 17
 255 25 l 2
 361 25 455 106 455 243 c 2
 455 500 l 9
 475 500 l 17
 475 242 l 2
EndSplineSet
Fore
SplineSet
475 242 m 2
 475 95 379 0 255 0 c 2
 70 0 l 9
 70 500 l 9
 95 500 l 17
 95 25 l 17
 255 25 l 2
 361 25 455 106 455 243 c 2
 455 500 l 9
 475 500 l 17
 475 242 l 2
865 232 m 2
 865 86 784 -10 662 -10 c 0
 538 -10 460 86 460 232 c 2
 460 500 l 9
 480 500 l 17
 480 233 l 2
 480 96 554 15 660 15 c 0
 766 15 840 96 840 233 c 2
 840 500 l 9
 865 500 l 17
 865 232 l 2
EndSplineSet
EndChar

StartChar: uni0261
Encoding: 609 609 18
Width: 620
Flags: HW
LayerCount: 2
Fore
SplineSet
515 -78 m 2
 515 237 l 2
 515 404 404 485 295 485 c 0
 161 485 65 379 65 250 c 0
 65 121 161 15 295 15 c 0
 357.077561523 15 410.999792884 37.7492967995 451 74.9951578719 c 1
 451 41.1785031205 l 1
 408.898144661 8.95534920896 355.492753135 -10 295 -10 c 0
 146 -10 40 105 40 250 c 0
 40 395 146 510 295 510 c 0
 419 510 540 419 540 238 c 2
 540 -78 l 2
 540 -223 434 -338 285 -338 c 3
 228 -338 184 -323 143 -297 c 1
 143 -265 l 1
 178 -293 227 -313 285 -313 c 3
 419 -313 515 -207 515 -78 c 2
EndSplineSet
EndChar

StartChar: f
Encoding: 102 102 19
Width: 417
Flags: HW
LayerCount: 2
Fore
SplineSet
336 838 m 0
 352 838 377 836 397 831 c 1
 397 805 l 1
 369 812 350 813 336 813 c 0
 203 813 105 710 105 577 c 2
 105 500 l 1
 372 500 l 1
 372 475 l 1
 105 475 l 1
 105 0 l 1
 80 0 l 1
 80 578 l 2
 80 724 187 838 336 838 c 0
EndSplineSet
EndChar

StartChar: t
Encoding: 116 116 20
Width: 417
Flags: HW
LayerCount: 2
Fore
SplineSet
336 -10 m 0
 187 -10 80 104 80 250 c 2
 80 669 l 1
 105 669 l 1
 105 500 l 1
 372 500 l 1
 372 475 l 1
 105 475 l 1
 105 251 l 2
 105 118 203 15 336 15 c 0
 350 15 369 16 397 23 c 1
 397 -3 l 1
 377 -8 352 -10 336 -10 c 0
EndSplineSet
EndChar

StartChar: j
Encoding: 106 106 21
Width: 406
Flags: HW
LayerCount: 2
Back
SplineSet
289 669 m 4
 289 683 300 694 314 694 c 4
 328 694 339 683 339 669 c 4
 339 655 328 644 314 644 c 4
 300 644 289 655 289 669 c 4
302 -328 m 29
 302 500 l 5
 327 500 l 5
 327 -328 l 29
 302 -328 l 29
EndSplineSet
Fore
SplineSet
289 669 m 0
 289 683 300 694 314 694 c 0
 328 694 339 683 339 669 c 0
 339 655 328 644 314 644 c 0
 300 644 289 655 289 669 c 0
302 500 m 1
 327 500 l 1
 327 -78 l 2
 327 -224 220 -338 71 -338 c 0
 55 -338 30 -336 10 -331 c 1
 10 -305 l 1
 38 -312 57 -313 71 -313 c 0
 204 -313 302 -210 302 -77 c 2
 302 500 l 1
EndSplineSet
EndChar

StartChar: c
Encoding: 99 99 22
Width: 397
Flags: HW
LayerCount: 2
Back
SplineSet
296 510 m 7
 312 510 337 508 357 503 c 5
 357 477 l 21
 329 484 310 485 296 485 c 7
 163 485 65 382 65 249 c 2
 65 0 l 9
 40 0 l 17
 40 250 l 2
 40 396 147 510 296 510 c 7
EndSplineSet
Fore
SplineSet
295 15 m 3
 309 15 328 16 356 23 c 9
 356 -3 l 1
 336 -8 311 -10 295 -10 c 3
 146 -10 40 105 40 250 c 0
 40 395 147 510 296 510 c 3
 312 510 337 508 357 503 c 1
 357 477 l 17
 329 484 310 485 296 485 c 3
 162 485 65 379 65 250 c 0
 65 121 161 15 295 15 c 3
EndSplineSet
EndChar

StartChar: s
Encoding: 115 115 23
Width: 509
Flags: HW
LayerCount: 2
Back
SplineSet
231 288 m 0
 231 397 319 485 428 485 c 0
 537 485 625 397 625 288 c 0
 625 179 537 91 428 91 c 0
 319 91 231 179 231 288 c 0
259 316 m 0
 259 409 335 485 428 485 c 0
 521 485 597 409 597 316 c 0
 597 223 521 147 428 147 c 0
 335 147 259 223 259 316 c 0
282 339 m 0
 282 420 347 485 428 485 c 0
 509 485 574 420 574 339 c 0
 574 258 509 193 428 193 c 0
 347 193 282 258 282 339 c 0
EndSplineSet
Fore
SplineSet
242 250 m 19
 242 396 299 510 428 510 c 3
 444 510 469 508 489 503 c 1
 489 477 l 17
 461 484 442 485 428 485 c 3
 315 485 267 382 267 249 c 3
 267 103 220 -11 81 -11 c 3
 65 -11 40 -9 20 -4 c 1
 20 22 l 17
 48 15 67 14 81 14 c 3
 204 14 242 121 242 250 c 19
EndSplineSet
EndChar

StartChar: v
Encoding: 118 118 24
Width: 570
Flags: HW
LayerCount: 2
Fore
SplineSet
500 242 m 2
 500 95 389 0 265 0 c 2
 70 0 l 9
 70 500 l 9
 95 500 l 17
 95 25 l 17
 265 25 l 2
 371 25 475 106 475 243 c 2
 475 500 l 9
 500 500 l 17
 500 242 l 2
EndSplineSet
EndChar

StartChar: k
Encoding: 107 107 26
Width: 510
Flags: HWO
LayerCount: 2
Fore
SplineSet
195 252 m 2
 91 252 l 9
 91 272 l 17
 195 272 l 2
 301 272 415 353 415 490 c 2
 415 500 l 9
 440 500 l 17
 440 489 l 2
 440 343 319 252 195 252 c 2
195 267 m 2
 319 267 440 176 440 30 c 2
 440 -1 l 9
 415 -1 l 17
 415 29 l 2
 415 166 301 247 195 247 c 2
 91 247 l 9
 91 267 l 17
 195 267 l 2
80 828 m 1
 105 828 l 1
 105 0 l 1
 80 0 l 1
 80 828 l 1
EndSplineSet
EndChar
